<?xml version="1.0" encoding="UTF-8" standalone="no"?>
<svg
   xmlns:dc="http://purl.org/dc/elements/1.1/"
   xmlns:cc="http://creativecommons.org/ns#"
   xmlns:rdf="http://www.w3.org/1999/02/22-rdf-syntax-ns#"
   xmlns:svg="http://www.w3.org/2000/svg"
   xmlns="http://www.w3.org/2000/svg"
   xmlns:sodipodi="http://sodipodi.sourceforge.net/DTD/sodipodi-0.dtd"
   xmlns:inkscape="http://www.inkscape.org/namespaces/inkscape"
   width="210mm"
   height="297mm"
   viewBox="0 0 210 297"
   version="1.1"
   id="svg1365"
   sodipodi:docname="beastie.svg"
   inkscape:version="1.0.1 (3bc2e813f5, 2020-09-07)">
  <defs
     id="defs1359">
    <inkscape:path-effect
       effect="copy_rotate"
       starting_point="0,0"
       origin="64.37,103.84"
       id="path-effect2187"
       is_visible="true"
       lpeversion="1"
       method="fuse_paths"
       num_copies="3"
       starting_angle="0"
       rotation_angle="60"
       gap="-0.01"
       copies_to_360="true"
       mirror_copies="false"
       split_items="false" />
    <inkscape:path-effect
       effect="powerstroke"
       id="path-effect2092"
       is_visible="true"
       lpeversion="1"
       offset_points="5,9.4488192"
       sort_points="true"
       interpolator_type="CentripetalCatmullRom"
       interpolator_beta="0.2"
       start_linecap_type="zerowidth"
       linejoin_type="round"
       miter_limit="3.7"
       scale_width="1"
       end_linecap_type="zerowidth" />
    <inkscape:path-effect
       effect="roughen"
       id="path-effect2089"
       is_visible="true"
       lpeversion="1"
       method="segments"
       max_segment_size="27"
       segments="12"
       displace_x="1.76477;2820662867"
       displace_y="1.64262;1955270545"
       global_randomize="4.5;1792364068"
       handles="along"
       shift_nodes="true"
       fixed_displacement="true"
       spray_tool_friendly="true" />
  </defs>
  <sodipodi:namedview
     id="base"
     pagecolor="#ffffff"
     bordercolor="#666666"
     borderopacity="1.0"
     inkscape:pageopacity="0.0"
     inkscape:pageshadow="2"
     inkscape:zoom="0.76970861"
     inkscape:cx="226.95046"
     inkscape:cy="426.25171"
     inkscape:document-units="mm"
     inkscape:current-layer="layer1"
     inkscape:document-rotation="0"
     showgrid="false"
     inkscape:snap-object-midpoints="true"
     inkscape:window-width="1024"
     inkscape:window-height="768"
     inkscape:window-x="0"
     inkscape:window-y="0"
     inkscape:window-maximized="1" />
  <metadata
     id="metadata1362">
    <rdf:RDF>
      <cc:Work
         rdf:about="">
        <dc:format>image/svg+xml</dc:format>
        <dc:type
           rdf:resource="http://purl.org/dc/dcmitype/StillImage" />
      </cc:Work>
    </rdf:RDF>
  </metadata>
  <g
     inkscape:label="Layer 1"
     inkscape:groupmode="layer"
     id="layer1">
    <path
       id="path1928"
       style="opacity:0.99451;fill:#ff0000;fill-opacity:1;fill-rule:nonzero;stroke:#550000;stroke-width:4.99999;stroke-miterlimit:4;stroke-dasharray:none"
       d="m 48.029297,66.007812 c -1.688166,0.04385 -3.383404,0.316725 -5.037109,0.824219 -1.415184,0.424853 -2.807169,0.998521 -4.142579,1.769531 -1.224243,0.706946 -2.367833,1.544957 -3.410156,2.5 -5.580058,-0.05752 -10.758686,0.165084 -18.998047,6.744141 5.121559,0.636622 9.071685,3.005356 12.771485,5.841797 -0.358713,3.987833 0.523396,7.989539 2.52539,11.457031 2.034669,3.523938 5.12519,6.319969 8.833985,7.994139 0.641324,4.72011 0.764519,9.4219 -1.265625,14.26758 -3.461011,6.30998 -3.059002,13.73731 0.470703,19.5 0.882057,1.44007 1.965734,2.77258 3.232422,3.95117 1.075624,1.0133 2.267937,1.93204 3.603515,2.70313 1.224354,0.70675 2.520888,1.27797 3.869141,1.70312 2.740218,4.86123 5.522533,9.23607 15.339844,13.08203 -2.009449,-4.75371 -1.932702,-9.36008 -1.326172,-13.98242 3.632921,-1.68326 6.656264,-4.44849 8.658203,-7.91601 2.034485,-3.52405 2.912331,-7.59749 2.507812,-11.64649 3.767068,-2.91545 7.7768,-5.37345 12.986329,-6.03906 7.195106,-0.15767 13.428512,-4.21809 16.654292,-10.15625 0.80611,-1.48392 1.41767,-3.0893 1.80469,-4.77539 0.33974,-1.43818 0.53907,-2.93047 0.53906,-4.472658 -1.1e-4,-1.413698 -0.15305,-2.822925 -0.45898,-4.203125 2.83984,-4.803714 5.23615,-9.401148 3.6582,-19.826172 -3.11211,4.117089 -7.13898,6.354725 -11.445309,8.140625 C 96.126183,81.164179 92.218778,79.927702 88.214844,79.927734 84.14569,79.92784 80.179276,81.205256 76.875,83.580078 72.466608,81.775429 68.333681,79.531633 65.152344,75.351562 61.418248,69.199252 54.784787,65.832346 48.029297,66.007812 Z m 18.896484,25.691407 c 0.665459,1.379355 1.424692,2.670067 2.208985,3.990234 -0.232538,1.208823 -0.349443,2.436983 -0.34961,3.667969 -1e-5,1.549538 0.202305,3.047408 0.548828,4.490238 0.746379,3.11437 2.228564,5.94405 4.271485,8.27734 -1.527286,-0.11337 -3.025102,-0.10117 -4.560547,-0.082 -0.930603,-0.8058 -1.935972,-1.52304 -3.001953,-2.13867 -1.341937,-0.77478 -2.740297,-1.34848 -4.164063,-1.76953 -3.069611,-0.91019 -6.25939,-1.04188 -9.300781,-0.43946 0.861827,-1.26598 1.600411,-2.5689 2.351563,-3.9082 1.163139,-0.40303 2.285413,-0.9159 3.351562,-1.53125 1.341947,-0.77476 2.537992,-1.69893 3.613281,-2.720704 2.323444,-2.2034 4.03216,-4.900478 5.03125,-7.835937 z"
       inkscape:path-effect="#path-effect2187"
       inkscape:original-d="m 65.168018,75.312123 c -1.636353,10.81088 1.002953,15.355435 3.977018,20.361547 a 19.431257,19.431257 0 0 0 -0.349848,3.667996 19.431257,19.431257 0 0 0 19.43137,19.431374 19.431257,19.431257 0 0 0 19.431372,-19.431374 19.431257,19.431257 0 0 0 -0.46044,-4.203362 c 2.83984,-4.803714 5.23768,-9.401159 3.65973,-19.826181 -3.11211,4.117089 -7.14,6.354175 -11.44633,8.140073 A 19.431257,19.431257 0 0 0 88.226558,79.910809 19.431257,19.431257 0 0 0 76.886683,83.5633 C 72.478291,81.758651 68.345449,79.51563 65.168018,75.312123 Z" />
    <text
       xml:space="preserve"
       style="font-style:italic;font-variant:normal;font-weight:normal;font-stretch:normal;font-size:28.06030000000000157px;line-height:1.25;font-family:monofur;-inkscape-font-specification:'monofur, Italic';font-variant-ligatures:normal;font-variant-caps:normal;font-variant-numeric:normal;font-variant-east-asian:normal;letter-spacing:0px;word-spacing:0px;fill:#ff0000;stroke-width:0.70151;"
       x="7.2098546"
       y="178.34563"
       id="text2191"><tspan
         sodipodi:role="line"
         id="tspan2189"
         x="7.2098546"
         y="178.34563"
         style="font-style:normal;font-variant:normal;font-weight:bold;font-stretch:normal;font-size:28.06030000000000157px;font-family:monofur;-inkscape-font-specification:'monofur Bold';font-variant-ligatures:normal;font-variant-caps:normal;font-variant-numeric:normal;font-variant-east-asian:normal;fill:#ff0000;stroke-width:0.70151;">ThreeBSD</tspan></text>
  </g>
</svg>
